<svg width="54" height="54" viewBox="0 0 54 54" fill="none" xmlns="http://www.w3.org/2000/svg">
<path d="M10.125 47.25C10.125 47.25 6.75 47.25 6.75 43.875C6.75 40.5 10.125 30.375 27 30.375C43.875 30.375 47.25 40.5 47.25 43.875C47.25 47.25 43.875 47.25 43.875 47.25H10.125ZM27 27C29.6853 27 32.2607 25.9333 34.1595 24.0345C36.0583 22.1356 37.125 19.5603 37.125 16.875C37.125 14.1897 36.0583 11.6143 34.1595 9.71554C32.2607 7.81674 29.6853 6.75 27 6.75C24.3147 6.75 21.7394 7.81674 19.8405 9.71554C17.9417 11.6143 16.875 14.1897 16.875 16.875C16.875 19.5603 17.9417 22.1356 19.8405 24.0345C21.7394 25.9333 24.3147 27 27 27Z" fill="#5F6368" fill-opacity="0.63"/>
</svg>
